# xmcd
#
# Track frame offsets:
#	150
#	44094
#	146138
#	186551
#
# Disc length: 3364 seconds
#
# Revision: 1
# Processed by: cddbd v1.5.2PL0 Copyright (c) Steve Scherf et al.
# Submitted via: audiograbber 1.83.01
#
DISCID=410d2204
DTITLE=Shane Morris and Mystified - Epoch
DYEAR=2012
DGENRE=Electronic
TTITLE0=Cambrian Explosion
TTITLE1=Devonia
TTITLE2=Triassic Extinction
TTITLE3=Jurassic Dawn
EXTD=
EXTT0=
EXTT1=
EXTT2=
EXTT3=
PLAYORDER=
